<svg width="131" height="131" viewBox="0 0 131 131" fill="none" xmlns="http://www.w3.org/2000/svg">
<path d="M103.941 65.7833C95.595 68.0205 86.7628 68.0953 78.3015 69.8225C70.0099 71.5202 61.4326 72.21 53.0397 72.8301C36.0367 74.1053 18.5673 73.2254 2.30471 67.927C0.145299 67.2235 0.562069 63.8331 2.926 63.9332C19.695 64.7008 36.4687 65.0154 53.2363 65.0325C61.408 65.0536 69.5891 64.9646 77.7799 64.7654C86.4332 64.5441 95.0214 62.8809 103.626 62.7327C105.425 62.7105 105.595 65.3449 103.941 65.7833Z" fill="#F4F4F4"/>
<path d="M129.106 63.1182C129.369 63.4069 129.563 63.7511 129.675 64.1253C129.787 64.4994 129.813 64.8939 129.751 65.2795C129.689 65.6651 129.542 66.0318 129.319 66.3525C129.096 66.6731 128.804 66.9395 128.464 67.1317C121.845 71.6843 115.569 76.8472 108.3 80.3422C107.879 80.5674 107.386 80.6162 106.929 80.4779C106.473 80.3395 106.089 80.0254 105.864 79.6046C105.639 79.1838 105.59 78.6908 105.729 78.234C105.867 77.7772 106.181 77.3941 106.602 77.1689C112.618 73.4666 117.807 68.7833 123.404 64.5566C121.599 62.6585 119.788 60.7535 117.879 58.9407C115.319 56.4285 112.296 54.3172 110.137 51.45C109.123 50.0925 110.084 47.3851 112.118 48.2478C118.877 51.028 124.153 57.9088 129.106 63.1182Z" fill="#F4F4F4"/>
</svg>
