<svg id="Layer_1" enable-background="new 0 0 512 512" height="512" viewBox="0 0 512 512" width="512" xmlns="http://www.w3.org/2000/svg"><path d="m464.866 112.467c-53.742 0-97.465-43.724-97.465-97.467 0-8.284-6.716-15-15-15h-80.334c-8.284 0-15 6.716-15 15v329.367c0 31.595-25.705 57.299-57.301 57.299-31.595 0-57.299-25.704-57.299-57.299 0-31.596 25.704-57.301 57.299-57.301 8.284 0 15-6.716 15-15v-80.334c0-8.284-6.716-15-15-15-92.433 0-167.633 75.2-167.633 167.635.001 92.433 75.2 167.633 167.634 167.633s167.635-75.2 167.635-167.633v-145.79c29.855 15.915 63.073 24.224 97.465 24.224 8.284 0 15-6.716 15-15v-80.334c-.001-8.284-6.717-15-15.001-15z"/></svg>