<svg width="28" height="28" viewBox="0 0 28 28" fill="none" xmlns="http://www.w3.org/2000/svg">
<path d="M11.3121 15.4561C11.2281 15.4561 9.38015 15.4561 8.54015 15.4561C8.09215 15.4561 7.95215 15.2881 7.95215 14.8681C7.95215 13.7481 7.95215 12.6001 7.95215 11.4801C7.95215 11.0321 8.12015 10.8921 8.54015 10.8921H11.3121C11.3121 10.8081 11.3121 9.18412 11.3121 8.42812C11.3121 7.30812 11.5081 6.24412 12.0681 5.26412C12.6561 4.25612 13.4961 3.58412 14.5601 3.19212C15.2601 2.94012 15.9601 2.82812 16.7161 2.82812H19.4601C19.8521 2.82812 20.0201 2.99612 20.0201 3.38812V6.58012C20.0201 6.97212 19.8521 7.14012 19.4601 7.14012C18.7041 7.14012 17.9481 7.14012 17.1921 7.16812C16.4361 7.16812 16.0441 7.53212 16.0441 8.31612C16.0161 9.15612 16.0441 9.96812 16.0441 10.8361H19.2921C19.7401 10.8361 19.9081 11.0041 19.9081 11.4521V14.8401C19.9081 15.2881 19.7681 15.4281 19.2921 15.4281C18.2841 15.4281 16.1281 15.4281 16.0441 15.4281V24.5561C16.0441 25.0321 15.9041 25.2001 15.4001 25.2001C14.2241 25.2001 13.0761 25.2001 11.9001 25.2001C11.4801 25.2001 11.3121 25.0321 11.3121 24.6121C11.3121 21.6721 11.3121 15.5401 11.3121 15.4561V15.4561Z" fill="black"/>
</svg>
