<svg xmlns="http://www.w3.org/2000/svg" width="37.32" height="38.527" viewBox="0 0 37.32 38.527">
  <g id="Group_140" data-name="Group 140" transform="translate(-590.285 -553.35)">
    <g id="Group_138" data-name="Group 138">
      <g id="Group_135" data-name="Group 135">
        <path id="Path_94" data-name="Path 94" d="M622.613,583.494H595.277a5,5,0,0,1-4.992-4.992V558.343a5,5,0,0,1,4.992-4.993h27.336a5,5,0,0,1,4.992,4.993V578.5A5,5,0,0,1,622.613,583.494Zm-27.336-27.18a2.031,2.031,0,0,0-2.028,2.029V578.5a2.031,2.031,0,0,0,2.028,2.029h27.336a2.031,2.031,0,0,0,2.028-2.029V558.343a2.031,2.031,0,0,0-2.028-2.029Z" fill="#8c54ff"/>
      </g>
      <g id="Group_136" data-name="Group 136">
        <path id="Path_95" data-name="Path 95" d="M615.115,591.877H602.762a1.482,1.482,0,0,1,0-2.963h12.353a1.482,1.482,0,0,1,0,2.963Z" fill="#8c54ff"/>
      </g>
      <g id="Group_137" data-name="Group 137">
        <path id="Path_96" data-name="Path 96" d="M608.936,591.064h0a1.482,1.482,0,0,1-1.478-1.486l.006-2.6a1.482,1.482,0,0,1,1.482-1.477h0a1.481,1.481,0,0,1,1.478,1.486l-.007,2.6A1.482,1.482,0,0,1,608.936,591.064Z" fill="#8c54ff"/>
      </g>
    </g>
    <g id="Group_139" data-name="Group 139">
      <path id="Path_97" data-name="Path 97" d="M606.552,574.78a1.8,1.8,0,0,1-1.612-1.019l-2.083-4.23h-2.691a1.482,1.482,0,1,1,0-2.963h3.248a2.091,2.091,0,0,1,1.875,1.2l1.1,2.227,2.392-6.617a1.789,1.789,0,0,1,3.405.06l1.342,4.145h4.2a1.482,1.482,0,1,1,0,2.963H613a2.291,2.291,0,0,1-2.154-1.622l-.435-1.343-2.166,5.994a1.812,1.812,0,0,1-1.6,1.207Zm-3.138-5.249h0Z" fill="#00235d"/>
    </g>
  </g>
</svg>
