<svg width="911" height="911" viewBox="0 0 911 911" fill="none" xmlns="http://www.w3.org/2000/svg">
<g clip-path="url(#clip0)">
<path d="M873.207 202.06L871.995 173.55L843.609 170.635C734.573 159.437 640.836 118.748 581.399 86.586C516.3 51.36 476.839 18.312 476.477 18.007L455.166 0L433.841 17.981C433.449 18.311 393.988 51.36 328.89 86.585C269.453 118.747 175.717 159.436 66.6805 170.634L38.2935 173.549L37.0815 202.059C36.8645 207.163 32.3045 328.757 79.1405 475.996C106.778 562.883 146.69 640.732 197.768 707.392C261.907 791.093 343.716 857.072 440.923 903.494L455.144 910.287L469.365 903.494C566.572 857.072 648.382 791.096 712.52 707.392C763.599 640.734 803.511 562.882 831.148 475.997C877.983 328.759 873.424 207.165 873.207 202.06ZM455.144 836.93C374.049 795.721 305.413 739.043 250.95 668.284C204.557 608.009 168.138 537.286 142.702 458.083C111.614 361.275 104.642 274.939 103.231 232.545C146.966 226.051 191.18 215.124 235.064 199.948C277.964 185.112 320.662 166.196 361.971 143.727C403.886 120.929 435.781 99.154 455.143 84.915C474.505 99.153 506.401 120.929 548.316 143.727C589.625 166.197 632.323 185.112 675.223 199.948C719.119 215.129 763.346 226.056 807.093 232.55C805.734 274.528 798.899 359.648 768.251 455.993C742.934 535.587 706.557 606.665 660.131 667.251C605.538 738.494 536.633 795.52 455.144 836.93Z" fill="#8C54FF"/>
<path d="M635.013 305.016L588.969 351.06L417.368 522.662L330.399 435.693L318.573 423.867L295.239 447.201V447.202L271.904 470.537L417.368 616L681.682 351.686L635.013 305.016Z" fill="black"/>
</g>
<defs>
<clipPath id="clip0">
<rect width="910.288" height="910.287" fill="white"/>
</clipPath>
</defs>
</svg>
