<svg width="512" height="512" viewBox="0 0 512 512" fill="none" xmlns="http://www.w3.org/2000/svg">
<g clip-path="url(#clip0)">
<path d="M453.484 239.262H58.0898C30.4688 239.262 8 261.73 8 289.351V461.914C8 489.531 30.4688 512 58.0898 512H453.484C481.105 512 503.574 489.531 503.574 461.914V289.351C503.574 261.73 481.105 239.262 453.484 239.262ZM473.574 461.914C473.574 472.988 464.562 482 453.484 482H58.0898C47.0117 482 38 472.988 38 461.914V289.351C38 278.273 47.0117 269.262 58.0898 269.262H453.484C464.562 269.262 473.574 278.273 473.574 289.351V461.914Z" fill="#8C54FF"/>
<path d="M255.828 160.641C267.746 160.641 279.664 156.113 288.738 147.055C297.539 138.273 302.383 126.594 302.383 114.168C302.383 101.742 297.539 90.0624 288.738 81.2812C270.59 63.1679 241.062 63.1679 222.914 81.2812C214.113 90.0624 209.27 101.742 209.27 114.168C209.27 126.594 214.113 138.273 222.914 147.055C231.988 156.113 243.906 160.641 255.828 160.641V160.641ZM244.105 102.512C247.34 99.2851 251.582 97.6757 255.828 97.6757C260.07 97.6757 264.312 99.289 267.543 102.512C270.664 105.625 272.383 109.766 272.383 114.168C272.383 118.57 270.664 122.707 267.547 125.824C261.082 132.273 250.57 132.269 244.105 125.824C240.984 122.707 239.27 118.57 239.27 114.168C239.27 109.766 240.988 105.629 244.105 102.512V102.512Z" fill="#8C54FF"/>
<path d="M310.637 179.762C313.567 182.699 317.411 184.168 321.254 184.168C325.09 184.168 328.922 182.707 331.852 179.785C349.411 162.258 359.083 138.957 359.083 114.168C359.083 89.3789 349.411 66.0742 331.852 48.5507C325.989 42.6992 316.489 42.707 310.637 48.5703C304.786 54.4336 304.797 63.9336 310.661 69.7851C322.54 81.6406 329.083 97.4023 329.083 114.168C329.083 130.93 322.54 146.695 310.661 158.551C304.797 164.402 304.786 173.898 310.637 179.762V179.762Z" fill="#8C54FF"/>
<path d="M179.723 179.785C182.652 182.707 186.484 184.168 190.32 184.168C194.164 184.168 198.008 182.699 200.938 179.762C206.789 173.898 206.777 164.402 200.914 158.551C189.035 146.691 182.492 130.93 182.492 114.164C182.492 97.4023 189.035 81.6406 200.914 69.7812C206.777 63.9296 206.789 54.4336 200.938 48.5703C195.086 42.7031 185.586 42.6953 179.723 48.5468C162.164 66.0742 152.496 89.375 152.492 114.164C152.492 138.953 162.164 162.258 179.723 179.785Z" fill="#8C54FF"/>
<path d="M138.391 421.976H98.125V314.285C98.125 306 91.4102 299.285 83.125 299.285C74.8398 299.285 68.125 306 68.125 314.285V436.976C68.125 445.262 74.8398 451.976 83.125 451.976H138.391C146.672 451.976 153.391 445.262 153.391 436.976C153.391 428.695 146.672 421.976 138.391 421.976V421.976Z" fill="black"/>
<path d="M184.863 299.285C176.578 299.285 169.863 306 169.863 314.285V436.976C169.863 445.262 176.578 451.976 184.863 451.976C193.145 451.976 199.863 445.262 199.863 436.976V314.285C199.863 306 193.145 299.285 184.863 299.285V299.285Z" fill="black"/>
<path d="M316.043 299.926C308.117 297.531 299.742 302.019 297.347 309.949L274.668 385.078L251.984 309.949C249.59 302.015 241.218 297.531 233.289 299.926C225.359 302.32 220.871 310.691 223.265 318.621L260.308 441.312C260.312 441.324 260.316 441.336 260.32 441.347C264.402 454.41 284.511 455.203 289.015 441.347C289.019 441.336 289.023 441.328 289.027 441.312L326.07 318.621C328.465 310.687 323.972 302.32 316.043 299.926V299.926Z" fill="black"/>
<path d="M428.449 329.285C436.734 329.285 443.449 322.57 443.449 314.285C443.449 306 436.734 299.285 428.449 299.285H360.781C352.496 299.285 345.781 306 345.781 314.285V436.976C345.781 445.262 352.496 451.976 360.781 451.976H426.43C434.715 451.976 441.43 445.262 441.43 436.976C441.43 428.695 434.715 421.976 426.43 421.976H375.781V382.906H418.348C426.633 382.906 433.348 376.191 433.348 367.906C433.348 359.621 426.633 352.906 418.348 352.906H375.781V329.285H428.449Z" fill="black"/>
<path d="M381.34 114.168C381.34 147.613 368.29 179.062 344.59 202.715C338.727 208.566 338.715 218.066 344.567 223.93C347.5 226.863 351.34 228.332 355.184 228.332C359.02 228.332 362.852 226.871 365.782 223.949C395.161 194.629 411.34 155.641 411.34 114.168C411.34 72.6992 395.161 33.707 365.782 4.38671C359.918 -1.46485 350.422 -1.45704 344.567 4.40624C338.715 10.2695 338.727 19.7695 344.59 25.6211C368.29 49.2734 381.34 80.7187 381.34 114.168Z" fill="#8C54FF"/>
<path d="M156.391 228.332C160.234 228.332 164.078 226.863 167.008 223.93C172.859 218.066 172.852 208.566 166.984 202.715C143.285 179.062 130.234 147.613 130.234 114.164C130.234 80.7187 143.285 49.2695 166.984 25.6172C172.848 19.7656 172.859 10.2656 167.008 4.40624C161.152 -1.46095 151.656 -1.46876 145.793 4.3828C116.414 33.707 100.234 72.6953 100.234 114.164C100.234 155.637 116.414 194.625 145.793 223.949C148.723 226.871 152.555 228.332 156.391 228.332Z" fill="#8C54FF"/>
</g>
<defs>
<clipPath id="clip0">
<rect width="512" height="512" fill="white"/>
</clipPath>
</defs>
</svg>
