<svg xmlns="http://www.w3.org/2000/svg" width="38.527" height="33.281" viewBox="0 0 38.527 33.281">
  <g id="icon-5" transform="translate(-467.248 -462.196)">
    <path id="Path_14" data-name="Path 14" d="M486.482,495.477l-.723-.416c-16.677-9.634-18.146-18.552-18.2-18.927a10.92,10.92,0,0,1-.31-2.581A11.37,11.37,0,0,1,478.605,462.2a11.227,11.227,0,0,1,7.906,3.214,11.23,11.23,0,0,1,7.907-3.214,11.37,11.37,0,0,1,11.357,11.357,14.7,14.7,0,0,1-.949,4.538c-3.725,9.261-17.047,16.673-17.612,16.984Zm-15.877-19.344c.532,1.741,3.313,8.467,15.9,15.929,2.767-1.645,12.705-7.946,15.591-15.117a12.007,12.007,0,0,0,.717-3.392,8.384,8.384,0,0,0-15.112-5.012l-1.188,1.589-1.186-1.589a8.385,8.385,0,0,0-15.113,5.012,8.438,8.438,0,0,0,.254,2.014Z" fill="#8c54ff"/>
    <path id="Path_15" data-name="Path 15" d="M488.265,472.647a1.483,1.483,0,0,1-1.372-.922c-.575-1.407-1.8-3.746-2.609-4.3a1.482,1.482,0,0,1,1.688-2.437c1.818,1.259,3.371,4.9,3.664,5.622a1.481,1.481,0,0,1-1.371,2.042Z" fill="#8c54ff"/>
    <path id="Path_16" data-name="Path 16" d="M474.012,476.192a1.482,1.482,0,0,1-1.408-1.023,5.554,5.554,0,0,1,2.778-6.832,1.482,1.482,0,0,1,1.288,2.669,2.664,2.664,0,0,0-1.249,3.246,1.481,1.481,0,0,1-.95,1.868A1.5,1.5,0,0,1,474.012,476.192Z" fill="#00235d"/>
  </g>
</svg>
