<svg width="512" height="512" viewBox="0 0 512 512" fill="none" xmlns="http://www.w3.org/2000/svg">
<g clip-path="url(#clip0)">
<path d="M510.501 334.235L417.876 173.802C416.55 171.505 414.366 169.829 411.804 169.143C409.243 168.458 406.513 168.816 404.216 170.142L350.339 201.247C348.042 202.573 346.366 204.757 345.68 207.319C344.993 209.881 345.353 212.611 346.679 214.907L348.335 217.775L308.439 221.607C290.949 223.287 274.549 230.87 261.899 242.7C232.309 225.047 197.278 217.826 163.109 222.378L160.835 222.681L165.324 214.907C168.086 210.124 166.447 204.008 161.664 201.247L107.788 170.142C105.492 168.817 102.763 168.457 100.2 169.143C97.6382 169.83 95.4543 171.505 94.1283 173.802L1.50184 334.235C-1.26002 339.017 0.378898 345.133 5.16166 347.894L59.038 379C60.572 379.884 62.2979 380.339 64.0378 380.339C64.9037 380.339 65.7737 380.226 66.6257 379.998C69.1875 379.311 71.3714 377.637 72.6974 375.34L77.7991 366.503L78.9711 368.519C91.7774 390.553 109.763 409.217 131.227 422.866C129.258 434.836 134.709 447.332 145.819 453.747C150.532 456.468 155.68 457.76 160.767 457.76C162.857 457.76 164.934 457.531 166.967 457.103C169.186 463.884 173.806 469.906 180.457 473.746C185.17 476.467 190.319 477.759 195.405 477.759C198.379 477.759 201.328 477.302 204.157 476.445C206.605 482.283 210.903 487.399 216.796 490.802C221.508 493.522 226.659 494.815 231.745 494.815C234.678 494.815 237.587 494.37 240.381 493.535C242.821 499.414 247.133 504.567 253.059 507.989C257.77 510.709 262.921 512.001 268.007 512.001C278.382 512.001 288.487 506.621 294.038 497.008L302.714 481.978C304.389 479.078 305.514 476.009 306.138 472.892C307.097 472.986 308.059 473.049 309.026 473.049C311.613 473.049 314.218 472.711 316.784 472.028C324.538 469.964 331.016 465.001 335.028 458.054C337.215 454.264 338.518 450.132 338.918 445.902C340.012 446.025 341.111 446.099 342.215 446.099C344.818 446.099 347.439 445.757 350.02 445.065C357.751 442.993 364.213 438.036 368.248 431.046C369.956 428.088 371.123 424.921 371.745 421.662L438.289 373.58L439.304 375.34C440.63 377.637 442.814 379.312 445.376 379.998C446.228 380.226 447.097 380.339 447.964 380.339C449.704 380.339 451.431 379.884 452.964 379L506.84 347.894C511.624 345.133 513.262 339.017 510.501 334.235V334.235ZM60.378 356.682L23.8208 335.576L106.448 192.462L143.005 213.568L60.378 356.682ZM155.818 436.427C153.505 435.092 151.851 432.935 151.16 430.355C150.469 427.775 150.824 425.08 152.158 422.767L157.875 412.866C159.725 409.661 163.093 407.868 166.552 407.868C168.247 407.868 169.965 408.299 171.535 409.206C176.309 411.962 177.951 418.09 175.194 422.864L169.477 432.767C166.721 437.542 160.594 439.185 155.818 436.427V436.427ZM190.458 456.426C185.684 453.669 184.041 447.543 186.796 442.768C186.796 442.767 186.797 442.767 186.797 442.766L196.188 426.5C197.523 424.187 199.679 422.533 202.259 421.841C203.121 421.61 203.995 421.496 204.863 421.496C206.595 421.496 208.306 421.951 209.847 422.84C214.621 425.597 216.263 431.725 213.507 436.5L204.116 452.765C201.36 457.541 195.232 459.182 190.458 456.426V456.426ZM226.796 473.481C222.021 470.724 220.379 464.597 223.135 459.823L233.437 441.98C234.771 439.668 236.928 438.013 239.508 437.322C240.369 437.091 241.244 436.977 242.112 436.977C243.844 436.977 245.555 437.432 247.096 438.321C249.409 439.656 251.064 441.812 251.755 444.392C252.446 446.972 252.091 449.667 250.755 451.98L240.455 469.82C237.699 474.596 231.571 476.238 226.796 473.481ZM285.395 471.979L276.718 487.007C273.962 491.782 267.832 493.424 263.058 490.668C260.745 489.333 259.09 487.176 258.399 484.596C257.708 482.018 258.062 479.327 259.395 477.014L268.075 461.979C269.926 458.775 273.294 456.982 276.752 456.982C278.447 456.982 280.165 457.413 281.735 458.319C286.51 461.076 288.152 467.205 285.395 471.979V471.979ZM350.895 421.104C349.564 423.41 347.415 425.059 344.843 425.748C342.271 426.437 339.587 426.084 337.28 424.752L295.934 400.881C291.151 398.121 285.036 399.759 282.275 404.541C281.412 406.036 280.979 407.661 280.937 409.272C280.853 412.496 282.335 415.668 285.076 417.645C285.35 417.843 285.637 418.028 285.936 418.201L314.067 434.442C316.369 435.773 318.017 437.921 318.705 440.49C319.394 443.061 319.04 445.747 317.709 448.053C316.375 450.364 314.221 452.014 311.642 452.701C309.064 453.388 306.373 453.026 304.068 451.685L301.645 450.275C299.173 446.575 295.843 443.37 291.737 440.999C285.093 437.164 277.577 436.171 270.601 437.634C268.303 430.597 263.558 424.731 257.097 421C249.169 416.423 239.999 415.895 231.988 418.758C229.476 413.387 225.361 408.703 219.848 405.52C212.91 401.514 204.826 400.448 197.084 402.523C195.703 402.893 194.364 403.359 193.071 403.908C190.526 399.048 186.627 394.826 181.534 391.885C167.208 383.613 148.826 388.54 140.556 402.864L139.621 404.484C121.881 392.698 106.995 376.933 96.2622 358.468L89.3276 346.537L148.218 244.537L165.751 242.202C194.45 238.379 223.846 244.107 249.005 258.334C248.94 258.438 228.764 290.973 228.764 290.973C220.732 303.928 222.693 320.46 233.533 331.177C239.834 337.407 248.099 340.52 256.363 340.52C264.661 340.52 272.96 337.382 279.266 331.108L284.803 325.6L374.836 377.225C377.151 378.552 378.808 380.701 379.502 383.277C380.196 385.853 379.844 388.544 378.51 390.854C378.499 390.873 378.489 390.891 378.478 390.91C375.716 395.63 369.634 397.244 364.892 394.508L319.319 368.196C314.535 365.435 308.42 367.074 305.66 371.856C302.898 376.639 304.537 382.754 309.32 385.515L347.29 407.437C349.592 408.769 351.238 410.916 351.926 413.484C352.613 416.057 352.26 418.742 350.895 421.104ZM398.655 377.546C396.487 370.036 391.582 363.773 384.783 359.874L299.503 310.976L310.778 299.76C314.693 295.866 314.71 289.534 310.815 285.619C306.918 281.704 300.588 281.687 296.672 285.582L265.16 316.93C260.322 321.741 252.441 321.751 247.592 316.956C243.428 312.839 242.675 306.488 245.76 301.511L265.802 269.184C275.457 253.61 292.113 243.266 310.352 241.515L359.325 236.811L428.238 356.171L398.655 377.546ZM451.625 356.682L368.998 213.568L405.556 192.462L488.182 335.576L451.625 356.682Z" fill="#8C54FF"/>
<path d="M218.533 144.678C229.263 151.697 236.666 153.903 246.003 154.512V161.992C246.003 167.515 250.48 171.992 256.002 171.992C261.524 171.992 266.002 167.515 266.002 161.992V153.357C283.625 148.836 294.92 133.761 297.419 118.897C300.685 99.4751 290.536 82.593 271.567 75.8883C269.735 75.2403 267.87 74.5684 266.003 73.8764V38.0951C270.468 39.6881 273.37 41.743 273.538 41.864C277.938 45.1518 284.172 44.2768 287.494 39.8921C290.829 35.4903 289.965 29.2186 285.562 25.8837C285.061 25.5048 277.384 19.804 266.002 17.3422V9.99951C266.002 4.47678 261.524 -1.90735e-06 256.002 -1.90735e-06C250.48 -1.90735e-06 246.003 4.47678 246.003 9.99951V17.2822C244.887 17.5261 243.763 17.8031 242.626 18.1451C230.066 21.9179 220.682 32.6424 218.134 46.1317C215.799 58.4951 219.793 70.4446 228.555 77.3182C233.002 80.8071 238.505 83.9949 246.002 87.3457V134.451C240.095 133.887 236.085 132.261 229.48 127.941C224.859 124.918 218.661 126.214 215.637 130.836C212.615 135.457 213.911 141.655 218.533 144.678V144.678ZM277.697 115.581C276.64 121.869 272.678 128.504 266.002 132.074V95.1624C279.125 100.433 278.288 112.065 277.697 115.581V115.581ZM240.897 61.582C238.078 59.3711 236.856 54.7633 237.785 49.8436C238.572 45.6788 241.135 40.75 246.002 38.2581V64.9718C244.111 63.8759 242.383 62.7469 240.897 61.582V61.582Z" fill="black"/>
<path d="M333.846 124.197L359.582 133.364C360.691 133.759 361.823 133.947 362.937 133.947C367.046 133.947 370.898 131.394 372.356 127.301C374.21 122.098 371.495 116.379 366.292 114.525L340.557 105.358C335.355 103.505 329.634 106.219 327.782 111.423C325.928 116.623 328.642 122.343 333.846 124.197V124.197Z" fill="black"/>
<path d="M337.2 66.1678C338.313 66.1678 339.447 65.9798 340.555 65.5848L366.29 56.4172C371.493 54.5633 374.208 48.8446 372.354 43.6419C370.501 38.4401 364.78 35.7263 359.58 37.5772L333.844 46.7447C328.641 48.5986 325.926 54.3173 327.78 59.5201C329.238 63.6139 333.09 66.1678 337.2 66.1678V66.1678Z" fill="black"/>
<path d="M149.065 133.946C150.179 133.946 151.312 133.758 152.42 133.363L178.156 124.196C183.359 122.342 186.074 116.623 184.221 111.421C182.367 106.217 176.646 103.504 171.445 105.356L145.71 114.523C140.507 116.377 137.792 122.096 139.645 127.299C141.105 131.393 144.956 133.946 149.065 133.946V133.946Z" fill="black"/>
<path d="M145.71 56.4172L171.446 65.5848C172.555 65.9798 173.688 66.1678 174.801 66.1678C178.91 66.1678 182.762 63.6139 184.22 59.5211C186.073 54.3183 183.358 48.5996 178.156 46.7457L152.42 37.5782C147.22 35.7273 141.498 38.4401 139.644 43.6429C137.792 48.8446 140.507 54.5643 145.71 56.4172V56.4172Z" fill="black"/>
</g>
<defs>
<clipPath id="clip0">
<rect width="512" height="512" fill="white"/>
</clipPath>
</defs>
</svg>
