<svg width="512" height="512" viewBox="0 0 512 512" fill="none" xmlns="http://www.w3.org/2000/svg">
<g clip-path="url(#clip0)">
<path d="M385.726 0.00199988H127.086C124.965 -0.0130001 122.816 0.0449999 120.665 0.181C76.3105 3.057 41.5645 41.217 41.5645 87.065V368.665C41.5645 396.544 60.4865 420.087 86.1655 427.117V496C86.1655 502.128 89.6695 507.719 95.1815 510.394C97.3995 511.472 99.7865 511.999 102.161 511.999C105.693 511.999 109.193 510.835 112.071 508.566L212.668 429.262H343.593C377.007 429.262 404.191 402.078 404.191 368.664V133.587H454.436C458.678 133.587 462.749 131.903 465.748 128.9C468.748 125.9 470.435 121.83 470.435 117.588V84.713C470.436 38.003 432.437 0.00199988 385.726 0.00199988ZM343.594 397.262H207.122C203.528 397.262 200.04 398.472 197.216 400.695L118.165 463.015V413.262C118.165 404.426 111.001 397.262 102.165 397.262C86.3955 397.262 73.5635 384.434 73.5635 368.665V87.065C73.5635 58.038 95.1615 33.901 122.735 32.12C123.883 32.041 125.028 32.003 126.168 32.003C126.203 32.003 126.238 32.003 126.273 32.003H126.523C139.902 32.062 152.488 37.042 162.304 46.245C173.057 56.323 178.979 69.987 178.979 84.714V117.589C178.979 126.425 186.143 133.589 194.979 133.589H372.189V368.665H372.19C372.191 384.434 359.362 397.262 343.594 397.262ZM438.438 101.588H438.437H210.981V84.713C210.981 65.537 204.379 46.893 192.571 32.002H385.726C414.793 32.002 438.437 55.646 438.437 84.713V101.588H438.438Z" fill="#8C54FF"/>
<path d="M321.599 182.001H133.6C126.97 182.001 121.6 187.376 121.6 194.001C121.6 200.626 126.971 206.001 133.6 206.001H321.599C328.228 206.001 333.599 200.626 333.599 194.001C333.6 187.376 328.228 182.001 321.599 182.001Z" fill="black"/>
<path d="M321.598 249.002H133.6C126.971 249.002 121.6 254.377 121.6 261.002C121.6 267.627 126.971 273.002 133.6 273.002H321.599C328.228 273.002 333.599 267.627 333.599 261.002C333.6 254.377 328.227 249.002 321.598 249.002Z" fill="black"/>
<path d="M321.598 316.001H133.6C126.971 316.001 121.6 321.376 121.6 328.001C121.6 334.626 126.971 340.001 133.6 340.001H321.599C328.228 340.001 333.599 334.626 333.599 328.001C333.598 321.376 328.227 316.001 321.598 316.001Z" fill="black"/>
</g>
<defs>
<clipPath id="clip0">
<rect width="511.999" height="511.999" fill="white"/>
</clipPath>
</defs>
</svg>
