<svg width="176" height="176" viewBox="0 0 176 176" fill="none" xmlns="http://www.w3.org/2000/svg">
<g clip-path="url(#clip0)">
<path d="M45.1096 23.2087C48.3046 21.9665 48.2697 17.4398 45.0746 16.1973L3.38477 0V67.3162H13.5337V35.5061L45.1096 23.2087Z" fill="black"/>
<path d="M170.181 124.942L128.553 108.745V175.976L138.702 176V144.251L170.255 131.954C173.45 130.711 173.376 126.184 170.181 124.942V124.942Z" fill="black"/>
<path d="M106.966 119.585L99.7975 126.291L107.276 134.256H44.0461C35.0851 134.256 27.795 127.069 27.795 118.085C27.795 109.102 35.0851 101.915 44.0461 101.915H128.704C143.083 101.915 154.781 90.0059 154.781 75.5897C154.781 61.1739 143.083 49.265 128.704 49.265H22.9306V59.4188H128.703C137.664 59.4188 144.954 66.6062 144.954 75.5897C144.954 84.5736 137.664 91.7607 128.703 91.7607H44.0461C29.6667 91.7607 17.9688 103.482 17.9688 117.897C17.9688 132.313 29.6667 144.034 44.0461 144.034H107.161L99.7715 152.129L106.992 158.846L122.109 142.444C123.856 140.547 123.845 137.627 122.083 135.743L106.966 119.585Z" fill="#8C54FF"/>
</g>
<defs>
<clipPath id="clip0">
<rect width="176" height="176" fill="white"/>
</clipPath>
</defs>
</svg>
